<?xml version="1.0" standalone="no"?>
<!DOCTYPE svg PUBLIC "-//W3C//DTD SVG 20010904//EN"
 "http://www.w3.org/TR/2001/REC-SVG-20010904/DTD/svg10.dtd">
<svg version="1.0" xmlns="http://www.w3.org/2000/svg"
 width="1200.000000pt" height="1200.000000pt" viewBox="0 0 1200.000000 1200.000000"
 preserveAspectRatio="xMidYMid meet">
<metadata>
Created by potrace 1.11, written by Peter Selinger 2001-2013
</metadata>
<g transform="translate(0.000000,1200.000000) scale(0.100000,-0.100000)"
fill="#000000" stroke="none">
<path d="M0 6000 l0 -6000 6000 0 6000 0 0 6000 0 6000 -6000 0 -6000 0 0
-6000z m2818 1827 c23 -15 52 -46 64 -70 23 -42 23 -44 26 -549 l3 -508 -581
0 -580 0 0 -195 0 -195 -109 0 c-59 0 -123 5 -142 11 -53 18 -99 58 -120 103
-17 39 -19 77 -19 659 0 535 2 623 15 655 21 49 52 81 100 103 38 18 74 19
671 16 l630 -2 42 -28z m1907 14 c46 -20 91 -69 103 -109 4 -15 7 -308 7 -652
l0 -625 -25 -43 c-15 -27 -42 -54 -70 -70 l-45 -27 -630 0 c-620 0 -631 0
-670 21 -22 11 -53 40 -70 63 l-30 43 -3 621 c-2 424 0 634 8 659 14 50 56 97
105 119 37 17 80 19 660 19 580 0 623 -2 660 -19z m885 -561 l0 -580 95 0 95
0 0 580 0 580 195 0 195 0 0 -580 0 -580 95 0 95 0 0 580 0 580 118 0 c92 0
126 -4 157 -19 50 -22 91 -69 105 -119 15 -56 14 -1223 -2 -1276 -19 -61 -75
-112 -140 -126 -38 -8 -225 -10 -653 -8 -598 3 -600 3 -642 25 -45 25 -74 59
-91 112 -9 24 -12 209 -12 643 0 657 -1 648 53 707 44 47 92 61 220 61 l117 0
0 -580z m2975 561 c90 -41 115 -98 115 -256 l0 -115 -580 0 -580 0 0 -95 0
-95 580 0 580 0 0 -195 0 -195 -580 0 -580 0 0 -95 0 -95 581 0 581 0 -3 -129
c-4 -125 -5 -131 -34 -172 -16 -23 -48 -52 -70 -63 -39 -21 -50 -21 -670 -21
l-630 0 -43 25 c-27 15 -54 42 -70 70 l-27 45 0 637 0 636 30 44 c18 25 49 52
75 66 l44 22 621 0 c581 0 622 -2 660 -19z m1930 0 c48 -22 79 -54 100 -103
13 -32 15 -99 15 -442 l0 -406 -196 -2 -195 -3 195 -285 196 -285 -237 -3
c-131 -1 -243 0 -249 2 -6 2 -100 133 -209 290 l-196 286 -135 0 -134 0 0
-290 0 -290 -102 0 c-123 0 -167 11 -214 52 -73 64 -69 25 -72 701 -2 396 1
621 8 646 15 57 50 102 99 128 l44 23 621 0 c582 0 623 -2 661 -19z m-8715
-2713 l0 -803 -28 -50 c-18 -34 -42 -59 -76 -80 -48 -29 -53 -30 -193 -33
l-143 -3 0 798 c0 756 1 800 19 838 24 52 76 101 126 119 27 10 82 15 168 15
l127 1 0 -802z m2048 790 c62 -15 133 -85 150 -148 8 -28 12 -91 10 -165 l-3
-120 -327 -3 -328 -2 0 -660 0 -660 -225 0 -225 0 0 660 0 660 -327 2 -328 3
-3 118 c-3 128 6 176 40 227 29 41 63 67 114 85 52 19 1378 22 1452 3z m2247
-15 c47 -25 75 -54 101 -103 15 -29 18 -59 19 -175 l0 -140 -662 -3 -663 -2 0
-105 0 -105 663 -2 662 -3 3 -222 2 -223 -665 0 -665 0 0 -110 0 -110 666 0
666 0 -4 -137 c-3 -116 -7 -144 -25 -179 -28 -52 -82 -100 -130 -114 -27 -8
-255 -10 -749 -8 l-711 3 -48 30 c-36 22 -57 45 -77 84 l-28 53 0 712 c0 796
-3 752 73 824 66 63 41 62 822 59 706 -2 710 -2 750 -24z m2218 -6 c26 -15 60
-47 75 -69 l27 -42 3 -720 c2 -510 0 -732 -8 -759 -15 -51 -84 -119 -136 -135
-23 -7 -97 -12 -168 -12 l-126 0 0 660 0 660 -110 0 -110 0 0 -660 0 -660
-220 0 -220 0 0 660 0 660 -110 0 -110 0 0 -661 0 -661 -148 4 c-143 3 -150 4
-190 31 -23 15 -54 46 -69 69 l-28 42 -3 729 c-2 726 -2 730 19 774 12 24 36
55 55 69 71 55 53 54 819 51 l710 -2 48 -28z m2163 18 c57 -17 115 -70 139
-127 11 -28 15 -73 15 -173 l0 -135 -660 0 -660 0 0 -105 0 -105 660 0 661 0
-3 -478 -3 -479 -30 -48 c-22 -36 -45 -57 -84 -77 l-53 -28 -709 0 c-775 0
-749 -2 -812 58 -59 55 -71 94 -75 245 l-4 137 666 0 666 0 0 110 0 110 -665
0 -666 0 3 473 c3 438 4 474 22 507 34 64 78 100 146 121 14 4 334 8 711 8
576 1 693 -1 735 -14z"/>
<path d="M1750 7280 l0 -190 385 0 385 0 0 190 0 190 -385 0 -385 0 0 -190z"/>
<path d="M3680 7085 l0 -385 385 0 385 0 0 385 0 385 -385 0 -385 0 0 -385z"/>
<path d="M9470 7375 l0 -95 385 0 385 0 0 95 0 95 -385 0 -385 0 0 -95z"/>
</g>
</svg>
